<?xml version="1.0" encoding="UTF-8"?>
<svg id="Ebene_1" data-name="Ebene 1" xmlns="http://www.w3.org/2000/svg" viewBox="0 0 87.39 77.59">
  <defs>
    <style>
      .cls-1 {
        fill: #be1c23;
        stroke: #be1c23;
        stroke-miterlimit: 10;
        stroke-width: .75px;
      }
    </style>
  </defs>
  <path class="cls-1" d="M82.52,10.02c-2.13-2.98-4.91-5.33-8.24-6.98-11.12-5.53-23.54-2.2-30.59,8.05C36.65.83,24.23-2.5,13.12,3.02c-3.33,1.65-6.11,4-8.25,6.98C-2.68,20.56-.65,34.27,10.42,47.63c9.27,11.18,20.15,21.04,32.36,29.31.27.18.59.27.9.27s.62-.09.92-.28c12.2-8.26,23.08-18.11,32.35-29.28,11.08-13.36,13.11-27.07,5.57-37.63ZM46.91,54.15c.38-3.07,1.14-8.23,1.6-9.63.05-.02.11-.03.15-.04,9.57.18,11.75-3.01,15.62-8.82,2.13-3.19,4.78-7.16,9.56-12.07l.28-.29v-.41c0-1.55-1.04-1.87-1.73-2.08l-.26-.08c-6.58-2.54-14.87-1.52-19.75,2.4-2.45,1.62-7.29,7.82-6.24,12.24l.11.25c-.35.61-.39,1.46-.45,2.5-.06,1-.12,2.14-.49,2.82l-1.19,2.17c-1.21-3.52-3-6.73-5.33-9.56-6.3-7.64-16.94-9.36-24.74-4-.04.03-.06.04-.03.04l-.58.1-.21.52c-.06.16-.18.57.14,1,.02.03.03.07.06.13l.07.19.14.15c.85.92,1.66,1.81,2.46,2.69,7.09,7.83,12.69,14.01,25.16,13.34.16,0,.56.04.79.1.29.73.3,2.52.02,5.34-.03.33-.06.59-.07.75-.34,5.62-.48,10.94-.42,15.85C32.13,62.8,7.32,43,5.51,25.53c-.53-5.13,1.01-9.71,4.58-13.62,3.78-4.13,8.8-6.25,13.87-6.25,3.84,0,7.72,1.22,11.09,3.72,3.36,2.49,5.87,6.3,7.45,11.31.14.45.51.8.97.9.71.16,1.4-.29,1.55-.95,1.44-5.41,4.39-9.52,8.76-12.24,6.35-3.95,14.16-3.68,20.36.7,6.16,4.35,9.01,11.55,7.44,18.81-.63,2.93-1.7,5.69-3.16,8.2-8.27,14.17-21.83,25.47-31.75,32.94-.04-1.35-.09-2.5-.14-3.55-.17-4.07-.27-6.31.36-11.33Z"/>
</svg>