<?xml version="1.0" encoding="UTF-8" standalone="no"?>
<!DOCTYPE svg PUBLIC "-//W3C//DTD SVG 1.1//EN" "http://www.w3.org/Graphics/SVG/1.1/DTD/svg11.dtd">
<svg xmlns="http://www.w3.org/2000/svg" version="1.1" viewBox="0.00 0.00 100.00 100.00">
<path fill="#be1c23" d="
  M 49.89 27.36
  Q 50.00 27.36 50.09 27.22
  C 56.62 16.84 68.87 13.01 80.03 18.56
  Q 84.83 20.94 87.90 25.23
  C 96.49 37.26 91.14 51.07 82.37 61.64
  Q 68.49 78.37 50.23 90.73
  Q 50.06 90.84 49.87 90.84
  Q 49.68 90.84 49.51 90.73
  Q 31.26 78.36 17.38 61.62
  C 8.62 51.05 3.28 37.23 11.87 25.21
  Q 14.95 20.92 19.75 18.54
  C 30.91 13.00 43.16 16.84 49.68 27.22
  Q 49.78 27.36 49.89 27.36
  Z
  M 49.65 35.02
  Q 47.17 27.15 41.84 23.20
  C 33.51 17.03 22.52 18.24 15.55 25.86
  C -2.79 45.91 34.73 76.23 48.42 86.09
  A 0.23 0.23 0.0 0 0 48.79 85.90
  Q 48.62 77.92 49.18 68.59
  Q 49.27 67.12 47.91 65.04
  A 0.92 0.90 71.5 0 0 47.10 64.63
  Q 27.06 65.70 20.18 46.92
  A 1.64 1.64 0.0 0 1 20.80 45.00
  C 28.47 39.73 38.47 41.85 44.21 48.81
  Q 48.10 53.53 49.83 59.52
  A 0.34 0.33 46.5 0 0 50.47 59.54
  L 51.85 55.52
  A 1.26 1.25 47.6 0 0 51.88 54.81
  Q 50.48 48.93 54.55 43.25
  C 60.35 35.16 68.24 32.32 77.83 35.47
  A 2.17 2.17 0.0 0 1 79.32 37.53
  C 79.33 50.91 66.28 56.74 54.79 58.11
  A 0.82 0.80 -80.9 0 0 54.14 58.59
  Q 53.23 60.74 52.92 63.22
  Q 51.63 73.54 51.92 85.18
  A 0.23 0.23 0.0 0 0 52.28 85.36
  C 65.10 75.81 77.58 64.78 85.49 51.23
  Q 87.77 47.31 88.76 42.74
  C 92.36 26.13 73.88 13.21 59.45 22.17
  Q 52.52 26.47 50.25 35.00
  A 0.31 0.31 0.0 0 1 49.65 35.02
  Z
  M 55.30 49.90
  Q 60.09 44.19 66.28 40.71
  A 1.53 1.53 0.0 0 1 68.37 41.29
  L 68.41 41.34
  A 1.56 1.56 0.0 0 1 67.83 43.46
  Q 60.57 47.63 55.98 54.28
  A 0.25 0.25 0.0 0 0 56.22 54.67
  C 65.22 53.54 74.90 49.00 76.13 38.97
  A 0.74 0.74 0.0 0 0 75.59 38.16
  Q 65.01 35.19 58.06 43.91
  Q 56.14 46.31 54.96 49.70
  A 0.20 0.20 0.0 0 0 55.30 49.90
  Z
  M 45.14 61.12
  Q 39.99 55.71 32.85 52.36
  A 1.51 1.51 0.0 0 1 32.19 50.25
  L 32.20 50.24
  A 1.69 1.69 0.0 0 1 34.45 49.57
  Q 40.61 52.77 45.17 56.63
  A 0.13 0.13 0.0 0 0 45.37 56.48
  C 42.18 49.26 35.80 44.15 27.55 45.35
  Q 25.73 45.61 23.97 46.67
  A 0.62 0.62 0.0 0 0 23.71 47.43
  Q 29.30 61.57 44.93 61.59
  A 0.28 0.28 0.0 0 0 45.14 61.12
  Z"
/>
</svg>
